PathFileType	4	(X/Y/Z)	C:\Users\Basilio\Documents\Thesis Gigler\squatting_fais\c3dfiles\076\SJ_pre3\markers_experimental.trc
DataRate	CameraRate	NumFrames	NumMarkers	Units	OrigDataRate	OrigDataStartFrame	OrigNumFrames
200.000000	200.000000	4	61	mm	200.000000	1023	1365
Frame#	Time	FHD			RBHD			C7			T10			CLAV			LSHO			LUUPA			LMUPA			LDUPA			LLEP			LMEP			LRAD			LUL			LRFIN			RSHO			RUPA1			RMUPA			RDUPA			RLEP			RMEP			RRAD			RUL			RUFIN			LASI			RASI			USACR			LSACR			RSACR			LTHI1			LTHI2			LTHI3			LTHI4			LLFC			LMFC			LTIB1			LTIB2			LTIB3			LTIB4			LLMAL			LMMAL			LHEE			LMT1			LMT2			LMT5			RTHI			RTHI2			RTHI3			RTHI4			RLFC			RMFC			RTIB1			RTIB2			RTIB3			RTIB4			RLMAL			RMMAL			RHEE			RMT1			RMT2			RMT5			LBHD			
		X1	Y1	Z1	X2	Y2	Z2	X3	Y3	Z3	X4	Y4	Z4	X5	Y5	Z5	X6	Y6	Z6	X7	Y7	Z7	X8	Y8	Z8	X9	Y9	Z9	X10	Y10	Z10	X11	Y11	Z11	X12	Y12	Z12	X13	Y13	Z13	X14	Y14	Z14	X15	Y15	Z15	X16	Y16	Z16	X17	Y17	Z17	X18	Y18	Z18	X19	Y19	Z19	X20	Y20	Z20	X21	Y21	Z21	X22	Y22	Z22	X23	Y23	Z23	X24	Y24	Z24	X25	Y25	Z25	X26	Y26	Z26	X27	Y27	Z27	X28	Y28	Z28	X29	Y29	Z29	X30	Y30	Z30	X31	Y31	Z31	X32	Y32	Z32	X33	Y33	Z33	X34	Y34	Z34	X35	Y35	Z35	X36	Y36	Z36	X37	Y37	Z37	X38	Y38	Z38	X39	Y39	Z39	X40	Y40	Z40	X41	Y41	Z41	X42	Y42	Z42	X43	Y43	Z43	X44	Y44	Z44	X45	Y45	Z45	X46	Y46	Z46	X47	Y47	Z47	X48	Y48	Z48	X49	Y49	Z49	X50	Y50	Z50	X51	Y51	Z51	X52	Y52	Z52	X53	Y53	Z53	X54	Y54	Z54	X55	Y55	Z55	X56	Y56	Z56	X57	Y57	Z57	X58	Y58	Z58	X59	Y59	Z59	X60	Y60	Z60	X61	Y61	Z61	

1024	5.115	-101.1917724609375	1574.812133789063	-896.5433349609377	-223.9306640625001	1501.5830078125	-844.3602294921877	-271.5914001464844	1397.389526367188	-923.8928222656252	-379.7996826171876	1104.244384765625	-946.4770507812502	-144.4633178710938	1302.005004882813	-926.763610839844	-192.9130249023438	1347.936767578125	-1096.622192382813	-221.3625946044922	1198.938232421875	-1231.837280273438	-223.8437805175782	1153.131469726563	-1212.6953125	-240.6592102050782	1142.958862304688	-1269.986572265625	-262.4736633300782	1100.43701171875	-1301.76904296875	-347.5915222167969	1117.711059570313	-1284.57763671875	-360.3625793457032	937.3138427734377	-1148.615844726563	-320.2921752929688	892.8596801757815	-1176.8583984375	-316.2974853515626	938.1008300781252	-1111.404174804688	-201.2518920898438	1329.154052734375	-761.8837280273439	-281.5678405761719	1208.408203125	-626.2175903320314	-265.3366394042969	1160.8544921875	-630.0091552734376	-310.1566467285157	1154.12939453125	-589.3412475585939	-330.1600952148438	1086.248413085938	-571.2654418945314	-403.4667358398439	1099.394287109375	-619.8477783203126	-363.9066772460938	935.1026000976565	-757.1167602539064	-308.3805541992188	933.9211425781252	-775.0020751953127	-330.0935668945313	891.4177246093752	-718.3653564453126	-293.7025756835938	878.010681152344	-1047.236572265625	nan	nan	nan	-414.859588623047	1008.918029785156	-949.7075195312502	-432.4009399414064	984.5692138671877	-979.476013183594	-432.701629638672	982.4726562500002	-921.7195434570315	-377.7707824707032	758.9151611328126	-1137.0107421875	-336.3542175292969	684.2805175781251	-1144.689453125	-287.7509155273438	691.8780517578126	-1134.132690429688	-357.4794616699219	627.8522949218751	-1133.582275390625	-324.1123352050782	472.7754821777345	-1122.650268554688	-289.2975463867188	461.8428344726564	-1011.514099121094	-297.5139160156251	321.6763305664063	-1064.629516601563	-329.2874450683594	274.0218505859376	-1132.583129882813	-299.6064147949219	272.7623291015626	-1097.425659179688	-322.0672302246094	196.1333618164063	-1067.223876953125	-393.2539367675782	81.27261352539064	-1124.716796875	-360.9757995605469	88.95511627197267	-1043.970947265625	-446.1027221679689	43.11368560791016	-1073.330688476563	-234.1084594726563	54.62685012817384	-1080.275634765625	-233.9253540039063	55.37985610961915	-1119.653442382813	-258.9773559570313	44.61150360107423	-1167.544067382813	-354.5679931640626	660.2405395507814	-759.4284667968751	-306.9695434570313	612.6983642578126	-748.3153076171876	-273.0722351074219	620.7987060546876	-753.6355590820314	-317.4716796875001	531.9504394531251	-763.3941650390626	-304.2909240722657	475.2629699707032	-762.7369384765626	-269.7394104003907	467.2233276367189	-872.8511352539065	-271.1505126953126	337.2400817871094	-772.0432128906252	-351.8120422363282	266.6523132324219	-749.7421264648439	-305.9367370605469	258.3726196289063	-757.6366577148439	-296.2904968261719	210.3527069091797	-789.257019042969	-374.9718322753907	79.85009765625001	-757.7680664062501	-347.7341918945313	91.36833953857423	-839.8794555664065	-428.7446289062501	50.41725540161134	-808.8414306640627	-220.6076049804688	52.71175003051759	-807.3530273437502	-220.8894805908204	57.07558441162111	-761.9144897460939	-251.7319641113282	36.12011718750001	-710.9277343750001	-233.6863098144532	1498.541015625	-996.4788818359377	
1025	5.12	-103.2934036254883	1578.541625976563	-896.2908935546877	-226.025375366211	1505.32177734375	-844.0959472656252	-273.6748657226563	1400.856567382813	-923.7573852539065	-379.9332275390626	1106.699829101563	-946.493591308594	-146.0064697265625	1306.222412109375	-926.596130371094	-195.1111145019532	1352.011108398438	-1096.501953125	-222.5832214355469	1203.233032226563	-1231.942016601563	-225.1892852783204	1157.42431640625	-1212.773559570313	-241.6796417236329	1147.343139648438	-1270.064208984375	-263.1173706054688	1104.406005859375	-1301.732055664063	-348.1622314453126	1120.992309570313	-1284.384155273438	-358.7317199707032	940.1128540039065	-1148.428833007813	-318.5299072265626	896.1689453125002	-1177.036865234375	-315.2374877929688	941.0696411132815	-1111.2099609375	-203.2402801513672	1333.1083984375	-761.8860473632814	-282.7906188964844	1211.826782226563	-626.3047485351564	-266.1257934570313	1164.536499023438	-630.0119018554689	-311.0414428710938	1157.368408203125	-589.5147094726564	-330.4655151367188	1089.321899414063	-571.2881469726564	-404.006072998047	1101.489135742188	-619.9360961914064	-362.9305725097657	937.512634277344	-756.9851684570314	-307.0059509277344	936.8355102539065	-774.7922363281252	-328.6511535644532	894.2740478515627	-718.1968383789064	-288.6818542480469	886.089782714844	-1048.04345703125	nan	nan	nan	-414.8219604492189	1011.325500488281	-949.3007812500002	-431.2981262207032	986.7730712890627	-979.3273925781252	-431.4984436035157	984.2131347656252	-921.7371215820315	-377.5786743164063	760.8882446289064	-1136.518188476563	-337.0250854492188	685.3565063476564	-1144.103759765625	-288.6443786621094	692.5349121093751	-1133.735229492188	-359.6463928222657	629.4790039062501	-1132.873657226563	-327.5729064941407	473.7522583007814	-1121.509521484375	-291.9749145507813	462.7217712402345	-1010.375915527344	-299.8870544433594	322.7104797363282	-1063.900512695313	-331.4315490722657	274.9279479980469	-1132.0029296875	-301.6426086425782	273.6796264648438	-1097.109008789063	-322.8790893554688	196.6985168457032	-1066.802856445313	-393.5791320800782	81.37734222412111	-1124.617553710938	-361.0677185058594	89.09169769287111	-1043.974365234375	-446.0953979492189	43.11962890625001	-1073.292602539063	-234.1516723632813	54.6293067932129	-1080.293334960938	-233.8684692382813	55.37226867675783	-1119.6865234375	-258.9750366210938	44.60834121704102	-1167.548583984375	-355.2582092285157	661.9769287109376	-759.7845458984376	-308.5519104003907	613.6384887695314	-748.8446044921876	-274.4786682128907	621.1304931640626	-753.9488525390626	-320.2167053222657	533.0354614257814	-764.0571899414064	-307.6148986816407	476.1301269531251	-763.5374145507814	-272.8691101074219	467.9661560058595	-873.7844238281252	-273.5147705078126	338.4756774902344	-772.628356933594	-353.7496948242188	267.2033386230469	-750.4186401367189	-307.9252929687501	259.1127319335938	-758.1500854492189	-297.6908569335938	211.3167877197266	-789.4655761718752	-375.1708984375001	79.83223724365236	-757.8450927734376	-347.9073791503907	91.51563262939455	-839.9602661132815	-428.9283752441407	50.47263717651369	-808.8474731445315	-220.5989227294922	52.75606155395509	-807.3425292968752	-220.8638916015626	57.14720916748048	-761.9198608398439	-251.7946166992188	36.10453796386719	-710.9660034179689	-236.1391143798829	1501.677856445313	-996.1484375000002	
1026	5.125	-105.4208221435547	1582.195678710938	-896.0682373046877	-227.9672851562501	1508.961059570313	-843.8703613281252	-275.6418762207032	1404.049560546875	-923.5598144531252	-379.9802551269532	1109.089477539063	-946.5657958984377	-147.4998474121094	1310.400146484375	-926.5301513671877	-197.3224182128907	1355.825805664063	-1096.291015625	-223.8022918701172	1207.330078125	-1231.90185546875	-225.1931304931641	1161.218383789063	-1212.86328125	-242.2258911132813	1150.893188476563	-1270.0615234375	-263.4617309570313	1108.196655273438	-1301.78076171875	-348.8122253417969	1124.0126953125	-1284.0771484375	-357.2026062011719	942.7741699218752	-1148.563842773438	-316.4590454101563	899.2214965820315	-1177.094604492188	-313.2268066406251	943.5532836914065	-1110.875732421875	-205.2039794921876	1336.7900390625	-761.6537475585939	-284.0329895019532	1215.177612304688	-626.3457031250001	-266.9550781250001	1168.053466796875	-629.9917602539064	-311.8750610351563	1160.477661132813	-589.5523071289064	-330.8122863769532	1092.144287109375	-571.2971191406251	-404.265838623047	1103.681518554688	-620.1276855468751	-361.7467651367188	939.8411865234377	-756.8922119140626	-305.9013977050782	939.610534667969	-774.7320556640627	-327.0243530273438	897.0184326171877	-717.8781738281251	-289.8695068359376	883.4876708984377	-1046.625610351563	nan	nan	nan	-412.8808593750001	1013.086547851563	-949.4517822265627	-430.158172607422	988.243591308594	-979.2014160156252	-430.6136169433595	986.1353759765627	-921.400329589844	-376.2607727050782	762.4245605468751	-1135.760498046875	-337.7306213378907	686.3217773437501	-1143.364135742188	-289.1829223632813	692.8385620117189	-1133.266723632813	-360.7179260253907	630.7028198242189	-1131.773559570313	-331.3345031738282	474.6204223632814	-1120.185546875	-294.1807861328126	463.5421752929689	-1009.302490234375	-302.3232727050782	323.3442077636719	-1063.400268554688	-333.9524536132813	275.5347290039063	-1131.26806640625	-303.8293762207032	274.5261535644532	-1096.71533203125	-324.0889282226563	197.4115905761719	-1066.566162109375	-393.6535644531251	81.38868713378908	-1124.453491210938	-361.1291198730469	89.15342712402345	-1043.944702148438	-446.1104736328126	43.12817001342774	-1073.28515625	-234.1095886230469	54.72443771362306	-1080.312866210938	-233.9049987792969	55.40673446655275	-1119.767578125	-258.4324340820313	44.26961135864259	-1167.4462890625	-356.0483093261719	663.5859375000001	-760.2318115234376	-310.1384582519532	614.7147827148439	-749.2268066406251	-275.9161987304688	621.6812744140626	-754.6873168945314	-323.0123901367188	534.2910156250001	-764.7209472656251	-310.9117431640626	476.8701171875001	-764.2727050781251	-275.6254882812501	468.4926757812501	-874.6411743164065	-276.0788879394532	339.4708862304688	-773.2025146484377	-355.6314086914063	267.6159973144532	-751.0592041015626	-309.6746520996094	259.9515686035157	-758.5933227539064	-299.1228637695313	212.0427398681641	-789.6759033203127	-375.3454895019532	79.87328338623048	-757.8788452148439	-347.9116516113282	91.58493804931642	-839.9486083984377	-428.9964599609376	50.52318572998048	-808.8502197265627	-220.5967102050782	52.76860809326173	-807.3423461914065	-220.9233398437501	57.17024230957033	-761.9505004882814	-251.8020172119141	36.15154266357423	-710.9414062500001	-238.3885192871094	1505.331909179688	-995.602233886719	
1027	5.13	-107.3783416748047	1585.512084960938	-895.741638183594	-230.0926361083985	1512.215698242188	-843.6284790039065	-278.0052490234376	1406.891723632813	-923.6199340820315	-380.0473022460938	1111.308471679688	-946.5293579101565	-149.1925964355469	1314.40087890625	-926.444030761719	-199.5094146728516	1359.383056640625	-1096.005004882813	-225.1654510498047	1211.23193359375	-1232.004028320313	-226.631332397461	1165.28857421875	-1212.90234375	-243.1614227294922	1155.022216796875	-1270.33056640625	-263.9834594726563	1111.942504882813	-1301.9384765625	-349.4706420898438	1126.713745117188	-1283.85595703125	-355.9065551757813	945.2010498046877	-1148.4501953125	-314.6463623046876	902.1713867187502	-1177.313842773438	-312.0739135742188	946.5547485351565	-1110.693481445313	-207.2153930664063	1340.475463867188	-761.7108154296876	-285.2556762695313	1218.278930664063	-626.4392700195314	-267.8256530761719	1171.400390625	-629.9712524414064	-312.5816955566407	1163.378540039063	-589.5913085937501	-331.1283569335938	1094.88330078125	-571.2056884765626	-404.3591308593751	1105.871704101563	-620.2130737304689	-360.4548950195313	942.1844482421877	-756.8455200195314	-304.5011596679688	942.2686157226565	-774.4604492187502	-325.6408691406251	899.5366210937502	-717.8201904296876	-283.2244873046876	893.4027099609377	-1047.360717773438	nan	nan	nan	-413.0888061523439	1015.256958007813	-949.0139160156252	-428.831268310547	990.0843505859377	-979.0397949218752	-429.1304931640626	987.5556640625002	-921.4310302734377	-376.3480224609376	764.1603393554689	-1135.188232421875	-338.3607177734376	687.4912109375001	-1142.680786132813	-289.6977233886719	693.1585083007814	-1132.657958984375	-361.9672241210938	632.1334228515626	-1130.936157226563	-334.5247497558594	475.3149719238282	-1119.027465820313	-297.2679443359376	464.0908203125001	-1008.284729003906	-304.7204895019532	324.3194885253907	-1062.594848632813	-336.1230773925782	276.5884704589844	-1130.787353515625	-305.8613891601563	275.6550598144532	-1096.132446289063	-325.0910644531251	197.9980163574219	-1066.33154296875	-393.7911071777345	81.44260406494142	-1124.323608398438	-361.2109680175782	89.20897674560548	-1043.91845703125	-446.1074829101564	43.14902114868165	-1073.22998046875	-234.1385803222657	54.74568939208986	-1080.369140625	-233.8601684570313	55.39086151123048	-1119.733032226563	-258.9851989746094	44.6134262084961	-1167.548950195313	-356.8058776855469	665.1360473632814	-760.6439819335939	-311.6113281250001	615.4716796875001	-749.9337158203126	-277.3872070312501	622.1315917968751	-755.1897583007814	-325.6972351074219	535.1990966796876	-765.4065551757814	-314.1030273437501	477.7079467773439	-765.0558471679689	-278.8052368164063	469.1285095214845	-875.599060058594	-278.6516723632813	340.3697509765626	-773.722106933594	-357.6853332519532	267.9216308593751	-751.6179809570314	-311.6715393066407	260.4814758300782	-759.0197753906251	-300.4256591796876	212.6199951171876	-789.8975219726565	-375.5039062500001	79.91023254394533	-757.9393310546876	-348.0717773437501	91.63797760009767	-840.0063476562502	-428.9670410156251	50.50269699096681	-808.9064941406252	-220.6347198486329	52.73177719116212	-807.3536376953127	-220.8934020996094	57.15944671630861	-761.9375000000001	-251.7845764160157	36.13338470458985	-710.9660644531251	-239.6794433593751	1509.497436523438	-995.8520507812502	
